<?xml version="1.0" encoding="UTF-8"?>
<!-- Created with Inkscape (http://www.inkscape.org/) -->
<svg id="flag_Buffalo_NY" width="9.6in" height="6in" version="1.0" viewBox="0 0 9.6 6" xmlns="http://www.w3.org/2000/svg" xmlns:cc="http://creativecommons.org/ns#" xmlns:dc="http://purl.org/dc/elements/1.1/" xmlns:rdf="http://www.w3.org/1999/02/22-rdf-syntax-ns#">
 <metadata id="metadata7">
  <rdf:RDF>
   <cc:Work rdf:about="">
    <dc:format>image/svg+xml</dc:format>
    <dc:type rdf:resource="http://purl.org/dc/dcmitype/StillImage"/>
   </cc:Work>
  </rdf:RDF>
 </metadata>
 <g id="layer1">
  <rect id="rect2190" width="9.6" height="6" style="fill:#002673"/>
  <path id="path2142" d="m5.952902 1.703757 0.0615944-0.1386479-0.1128196-0.1014349 0.1508962 0.0157333 0.0616052-0.1386438 0.0316643 0.1483744 0.1508957 0.0157529-0.1313284 0.0759615 0.0316539 0.1483768-0.1128266-0.1014273zm-0.7276519-0.3886352-0.009908-0.1513914-0.147042-0.0373666 0.140918-0.056213-0.0099-0.1513918 0.097003 0.116652 0.140922-0.0562036-0.0809659 0.1283047 0.0969945 0.1166592-0.1470446-0.0373564zm-0.8247074-0.005902-0.0791378-0.1294419-0.1475625 0.0352539 0.0986541-0.115261-0.0791199-0.1294492 0.1401037 0.05820338 0.0986629-0.1152524-0.0120666 0.1512351 0.140101 0.0582232-0.1475611 0.0352631zm-0.7330764 0.3781379-0.1302309-0.0778272-0.1142705 0.0998005 0.0337789-0.1479074-0.1302256-0.0778376 0.1511043-0.0135921 0.03379-0.1479051 0.0596119 0.1395133 0.1511035-0.013592-0.1142631 0.0998089zm-0.4733545 0.6756115-0.1514836-0.008374-0.0547847 0.1414789-0.0388497-0.1466568-0.1514831-0.008384 0.1274751-0.0822645-0.0388405-0.1466601 0.1176319 0.0958143 0.1274812-0.0822557-0.0547745 0.1414823zm-0.1050719 0.8180059-0.1380228 0.06299 0.0172067 0.1507376-0.1025566-0.1118041-0.1380285 0.0629714 0.0746395-0.1320843-0.1025479-0.1118111 0.1486856 0.0301752 0.0746498-0.1320789 0.0172068 0.1507377zm0.2871185 0.7731268-0.092941 0.1199144 0.085315 0.1254544-0.1427659-0.05134-0.09295 0.1199071 0.0047-0.1516416-0.1427627-0.05135 0.145675-0.042386 0.00472-0.1516424 0.085325 0.1254484zm0.6137195 0.5512512-0.0265452 0.1493742 0.1338538 0.0714154-0.1502653 0.0209215-0.0265559 0.1493728-0.0663172-0.1364521-0.1502678 0.0209116 0.1092783-0.1052465-0.0663083-0.1364563 0.1338596 0.071405zm0.7994055 0.2027872 0.045911 0.1446022 0.1517123 0.00103-0.123337 0.088353 0.045902 0.1446053-0.1221393-0.089999-0.1233445 0.088335 0.047849-0.1439715-0.122131-0.090008 0.1517108 0.00102zm0.8013276-0.1915808 0.1078009 0.1067539 0.1348462-0.0695241-0.0682163 0.1355143 0.1077927 0.106762-0.1499605-0.0229977-0.0682274 0.1355092-0.0244923-0.1497261-0.1499587-0.0230076 0.1348426-0.0695332zm0.6213843-0.5425924 0.1450709 0.044411 0.087073-0.1242416 0.0026 0.1516934 0.1450672 0.044422-0.1434662 0.049348 0.00259 0.1516933-0.091262-0.1211972-0.143471 0.049329 0.087064-0.1242472zm0.2979214-0.7690367 0.1490941-0.0280691 0.0193638-0.150476 0.0727992 0.1331106 0.1490953-0.0280693-0.1041018 0.1103669 0.0727808 0.1331171-0.1371323-0.0648985-0.1041096 0.1103583 0.0193448-0.1504761zm-0.0935846-0.8193371 0.1189579-0.0941662-0.0527825-0.1422375 0.1263142 0.0840383 0.1189651-0.0941577-0.0408878 0.1461004 0.1263078 0.084048-0.1515867 0.00626-0.0409071 0.1460984-0.0527913-0.1422343z" style="fill:#ffffff"/>
  <path id="path2110" d="m5.82773 3.015352 0.9860873-0.0668457-0.1357602-0.0690406 0.5888211-0.041417-0.1170685-0.0596336 0.350298-0.07011-0.6343803-0.044925 0.1360017 0.069447-0.7601343-0.0117 0.1712983 0.087391-0.617011-0.00607zm-2.020242 0.2908287-0.9415995 0.3000124 0.1484713 0.0346335-0.561895 0.1806086 0.1280493 0.0299687-0.3233334 0.1515716 0.6269273-0.1076733-0.148807-0.0349821 0.7410616-0.1699057-0.187403-0.04397 0.6007059-0.1412349zm-0.0105442-0.4899493-0.9731592-0.1700622 0.1151539 0.0994102-0.5814627-0.1000901 0.0992757 0.085816-0.3568601-0.0153786 0.6049114 0.1948038-0.1152963-0.0998651 0.7349577 0.1925009-0.1452354-0.1256978 0.5973992 0.1529302zm0.219316-0.4385678-0.7816923-0.6007499 0.0554796 0.1413461-0.4677726-0.3576002 0.0477803 0.1219548-0.3085834-0.1786668 0.4443005 0.4523712-0.055391-0.1418115 0.5604456 0.5104736-0.0698228-0.1785511 0.4572026 0.4117925zm0.3985478-0.2870873-0.4114536-0.8937287-0.0168523 0.1509132-0.2471022-0.533137-0.0146227 0.1301648-0.1897181-0.300975 0.182109 0.6062792 0.0171543-0.1512855 0.2577802 0.7114576 0.021528-0.1905161 0.212461 0.5762795zm0.4872037-0.0701573 0.0534285-0.9822338-0.0854014 0.1259137 0.0304052-0.5867038-0.073737 0.1085658-0.0272652-0.3544471-0.122075 0.6214291 0.0858387-0.1261038-0.1042504 0.7496307 0.1080311-0.1588413-0.081206 0.6088935zm0.4636502 0.1631336 0.5058936-0.8456493-0.1343582 0.0720757 0.300843-0.5058135-0.1159387 0.06209252 0.1413732-0.3266892-0.3981713 0.494195 0.1348339-0.0720443-0.4422592 0.6160381 0.1697545-0.0907895-0.3561559 0.5019882zm0.334144 0.359109 0.8425446-0.5152508-0.1525363 0.00171 0.5024075-0.3090007-0.1315764 0.00138 0.2776556-0.2240614-0.5830932 0.2536809 0.152942-0.00145-0.679007 0.3412441 0.1925939-0.00191-0.5495599 0.2800216zm0.0204649 0.9505261 0.9037767 0.3967147-0.0879027-0.1239577 0.5403736 0.235559-0.0757512-0.106975 0.3427014 0.0998422-0.5403842-0.3331355 0.0879264 0.1244328-0.6671714-0.36184 0.1107853 0.1566476-0.5431503-0.2906753zm-0.3189828 0.3743645 0.613777 0.7700636-0.0197564-0.1505154 0.367745 0.4589741-0.0169309-0.1298463 0.2563956 0.2471939-0.3221201-0.5454025 0.0195977 0.150939-0.4208286-0.6295614 0.0247242 0.1900664-0.3445005-0.509049zm-0.4553917 0.1835437 0.1844049 0.9660645 0.0526525-0.142561 0.1116114 0.5766817 0.0454989-0.122942 0.1117506 0.337514-0.0309389-0.6322374-0.0530314 0.1428496-0.0790876-0.7524217-0.0667066 0.1799116-0.0676143-0.6103326zm-0.5074975-0.050465-0.2782149 0.9441949 0.1121029-0.1031158-0.1647144 0.5643227 0.0967613-0.0888871-0.0551007 0.3513415 0.2619132-0.5772291-0.1125728 0.1032047 0.2740977-0.7061246-0.1417054 0.1300202 0.2192581-0.5743466zm-0.4077129-0.2769996-0.6872041 0.70782 0.1473464-0.039496-0.4093368 0.4237736 0.1271237-0.0339731-0.212875 0.2857907 0.5013595-0.3902338-0.1478034 0.0393516 0.57235-0.4987964-0.1861021 0.0496295 0.4622751-0.4074165z" style="fill-rule:evenodd;fill:#ffffff"/>
  <circle id="path10154" cx="4.8" cy="3" r="1.125" style="fill-rule:evenodd;fill:#002673"/>
  <g id="g4436" transform="matrix(.00601042 0 0 .00601042 2.55201 .05912223)">
   <g id="g3849" transform="matrix(.8473516 0 0 .8473516 57.09502 74.69461)">
    <circle id="path3106" cx="374.0131" cy="489.2919" r="177.6971" style="fill:#ffffff"/>
    <path id="rect2550" d="m346.4224 584.9954-7e-3 3.90192h2.51134v-2.72277h3.44149v2.72277h2.51135v-2.72277h3.44147v2.72277h2.51135v-2.72277h3.44148v2.72277h2.51135v-2.72277h3.44148v2.72277h2.51135v-2.72277h3.44147v2.72277h2.51135v-2.72277h3.44148v2.72277h2.51135v-2.72277h3.44147v2.72277h2.51135v-2.72277h3.44148v2.72277h2.51135v-2.72277h3.44148v2.72277h2.51135v-2.72277h3.44147v2.72277h2.51135v-2.72277h3.44148v2.72277h2.51134v-2.72277h3.44149v2.72277h2.51135v-2.72277h3.44147v2.72277h2.51135v-2.72277h3.44147v2.72277h2.51135v-2.72277h3.44149v2.72277h2.51135v-2.72277h3.44147v2.72277h2.51135v-2.72277h3.44148v2.72277h2.51135v-2.72277h3.44148v2.72277h2.51134v-2.72277h3.44148v2.72277h2.51135v-2.72277h3.44148v2.72277h2.51135v-2.72277h3.44147v2.72277h2.51135v-2.72277h3.44148v2.72277h2.51135v-2.72277h3.44148v2.72277h2.51135v-2.72277h3.44147v2.72277h2.51135v-2.72277h3.44148v2.72277h2.51134v-2.72277h3.44149v2.72277h2.51135v-2.72277h2.41833v-1.17915z" style="fill:#002673"/>
    <path id="path2548" d="m300.7764 633.5492c3.07437 0.40935 8.58637 0.76521 11.51842-0.52903-1.81252 3.35886-8.52557 4.07767-11.51842 0.52903z" style="fill-rule:evenodd;fill:#002673"/>
    <path id="path2536" d="m302.9393 629.7909c-2.97952 0.40935-8.32147 0.76521-11.16305-0.52903 1.75659 3.35886 8.26253 4.07767 11.16305 0.52903z" style="fill-rule:evenodd;fill:#002673"/>
    <path id="path7056" d="m318.9375 553.7812c-9.87786-5e-3 -19.60465 1.49844-27.5 5.71875-8.5613 4.57626-13.37802 10.34447-22.875 11.5625-11.6023 1.48806-19.85421 6.05577-23.15625 12.59375h12.59375l4.40625-6.15625-2.5625 6.15625h2.53125l5.3125-7.40625-3.09375 7.40625h2.375l5.21875-7.28125-3.03125 7.28125h2.0625l6.625-9.28125-3.84375 9.28125h1.375l8.03125-11.1875-4.65625 11.1875h0.8125l9.375-13.0625-5.40625 13.0625h0.25l9.53125-13.3125-5.5 13.3125h0.53125l9-12.5625-5.1875 12.5625h0.0937l10.25-14.3125-5.90625 14.3125h0.125l9.1875-12.8125-5.3125 12.8125h0.53125l9.8125-13.6875-5.09375 12.28125 10.25-14.3125-6.3125 15.15625 11.59375-16.15625-5.53125 13.28125 9.53125-13.28125-5.875 14.15625 10.15625-14.15625-6 14.4375 9.65625-13.4375-6.0625 14.65625 9.5625-13.375-6 14.4375h0.25l8.65625-12.0625-5 12.0625h0.25l9.53125-13.3125-5.53125 13.3125h0.90625l6.75-9.40625-3.90625 9.40625h2l4.9375-6.90625-2.875 6.90625h21.65625l7-9.75-4.03125 9.75h1.90625l6.375-8.875-3.6875 8.875h7.40625l9.81255-13.65625-5.65625 13.65625h1.75l8.15625-11.34375-4.71875 11.34375h1.84375l7.5-10.46875-4.34375 10.46875h17.8125l8.75-12.25-5.0625 12.25h1.3125l7.5-10.46875-4.34375 10.46875h1.40625l7.75-10.8125-4.5 10.8125h9.96875c3.77172-2.8878 7.66957-5.49673 12.46875-6.4375 5.55876-1.44491 11.24807 0.10299 16.84375 0.1875 3.47104-0.32989 7.14626-2.95937 10.53125-0.90625 2.79073 2.48025 6.20902 4.75891 10.125 3.84375 4.74183 0.0308 10.0432 0.70226 14.09375 3.3125h16.09375l-0.75-13.84375c-5.44819-2.71402-10.71584-3.068-16.59375-1.5-4.43673 1.18354-7.89031-0.87675-11.8125-2-4.63707-1.32795-9.50259-0.65366-15.09375-0.25-9.29954 0.67144-18.55799-0.91224-26.65625-3.03125-9.52644-2.49269-19.0117-4.25197-28.65625-1-4.93983 1.66562-10.10573 0.38961-15.09375-1-11.90226-3.31588-23.65949-7.06971-36.21875-3.53125-14.61291 4.11707-18.91259-0.19106-26.15625-1.5-7.08427-1.28014-14.84847-2.21452-22.53125-2.21875z" style="fill-rule:evenodd;fill:#002673"/>
    <path id="path4334" d="m518.0979 451.8701h-8.79754m10.1594-3.27603h-18.63219m20.08466-3.27603h-22.14234m21.54679-3.27603h-23.12031m21.98438-3.27602h-28.03637m27.25926-3.27606h-30.04318m29.44584-3.27602h-30.89831m30.15199-3.27602h-29.66783m27.80079-3.27605h-28.40599m26.65092-3.27602h-30.04004m27.55872-3.27603h-39.29958m36.69723-3.27605h-37.18139m33.73175-3.27602h-31.67407m29.37431-3.27603h-15.57577m14.48641-3.27604h-19.32801m18.29918-3.27602h-19.63061m18.11761-3.27603h-19.20697m18.05709-3.27605h-30.40316m26.34833-3.27602h-30.8268m27.67976-3.27603h-27.07456m23.38285-3.27604h-18.29918m14.60746-3.27602h-3.95595m1.77723-3.27603h-6.86091m4.86375-3.27605h-10.43158m8.0713-3.27602h-8.19234m-198.1705 78.62476h-42.48199m42.39641-3.27603h-29.72937m28.44554-3.27603h-26.22025m23.7382-3.27603h-29.04466m27.50407-3.27602h-31.78348m30.75643-3.27606h-30.07172m31.52671-3.27602h-24.67967m27.41849-3.27602h-26.90496m28.1032-3.27605h-30.49967m29.81496-3.27602h-31.35554m16.46322-3.27603h-13.38205m28.35996 36.03634h-44.70728m41.19817 3.27604h-42.31082m85.78957-6.55207h-7.73323m57.54549-3.27603h-61.99608m64.39255-3.27603h-68.3296m68.15842-3.27603h-69.52783m66.78902-3.27602h-62.68079m60.96902-3.27606h-57.20314m56.34726-3.27602h-56.34726m58.40138-3.27602h-58.74374m61.48256-3.27605h-48.13081m53.35168-3.27602h-42.56758m46.59022-3.27603h-44.70729m46.50464-3.27605h-34.69348m23.7382-3.27602h-21.68409m88.35723 22.93221h-10.64323m38.8873-3.27602h-52.41022m62.16726-3.27602h-67.13136m66.61783-3.27605h-59.25726m49.15786-3.27602h-51.38315m47.4461-3.27603h-64.73489m18.6885-3.27605h-24.67967m46.41905-3.27602h-46.41905m45.73434-3.27603h-42.65317m41.96847-3.27604h-31.86907m40.2567-3.27602h-39.05847m40.77023-3.27603h-47.27492m47.61727-3.27605h-51.7255m47.95963-3.27602h-46.24787m43.33787-3.27603h-37.00435m38.03141-3.27604h-39.22965m40.77024-3.27602h-53.09492m52.75256-3.27603h-59.59961m53.77962-3.27605h-53.09491m37.68906-3.27602h-32.55378m28.61673-3.27603h-25.87791m16.80557-3.27604h-18.68851m10.64323-3.27603h-18.34615m14.23792-3.27602h-20.05791m21.5985-3.27605h-11.32793m-61.42201 62.24462h-17.66143m18.77407-3.27605h-19.80113m20.65701-3.27602h-20.99936m29.81494-3.27603h-34.86464m39.05845-3.27604h-41.54051m42.99551-3.27602h-37.77463m37.77463-3.27603h-34.09434m32.55375-3.27605h-32.9817m29.64377-3.27602h-37.00434m29.21582-3.27603h-32.12582m27.2473-3.27604h-26.04906m21.25613-3.27602h-18.17496m16.97673-3.27603h-28.01759m27.16171-3.27605h-25.36436m15.52173-3.27602h-13.89556m75.43724 32.76031h-4.19802m5.77153-3.27602h-13.03392m13.8812-3.27603h-14.84952m23.56439-3.27605h-23.68543m27.80079-3.27602h-29.01119m27.67975-3.27603h-30.70575m17.27033-3.27604h-24.89584m23.5644-3.27602h-25.98519m25.50103-3.27603h-25.13791m24.29063-3.27605h-23.68543m17.02824-3.27602h-19.20696m17.02824-3.27603h-24.29063m22.95919-3.27604h-21.99087m14.36537-3.27603h-13.39705m-4.1136-9.29323h6.93441m-28.85656 5.46882h6.04539" style="fill:none;stroke-linecap:round;stroke-width:1px;stroke:#002673"/>
    <path id="path6718" d="m427.5938 432.2812c-2.08139 0-3.78124 1.66862-3.78125 3.75 0 0.0731 0.0271 0.14673 0.0312 0.21875-0.77304 0.23538-1.3911 0.83413-1.65625 1.59375-0.42745-0.32871-0.98199-0.53125-1.5625-0.53125-0.78692 0-1.47254 0.37417-1.9375 0.9375-0.65075-0.53427-1.4992-0.84374-2.40625-0.84375-2.08139 0-3.75001 1.69987-3.75 3.78125 0 0.19468 3e-3 0.37574 0.0312 0.5625l-60.4375-1.34375-1.5 1.15625c-0.42412-0.80688-1.24447-1.37501-2.21875-1.375-1.38808 0-2.51375 1.11606-2.53125 2.5-0.32996-0.15737-0.67279-0.28125-1.0625-0.28125-0.71525 0-1.38281 0.30419-1.84375 0.78125-0.35295-0.74206-1.03579-1.27481-1.875-1.40625 0.0482-0.19504 0.0937-0.38391 0.0937-0.59375 0-1.39896-1.16355-2.53125-2.5625-2.53125-0.0987 0-0.18552 0.0203-0.28125 0.0312-0.52642-1.44827-1.9018-2.46874-3.53125-2.46875-2.08139 0-3.78126 1.66863-3.78125 3.75 0 0.79672 0.26523 1.5472 0.6875 2.15625l-0.0937 0.125c-0.46444-0.52481-1.11961-0.87501-1.875-0.875-1.39896 0-2.53126 1.16354-2.53125 2.5625 0 0.33925 0.0664 0.64168 0.1875 0.9375-0.48949 0.0877-0.93234 0.29929-1.28125 0.625-0.46191-0.6226-1.19703-1.03124-2.03125-1.03125-1.39896 0-2.53125 1.13229-2.53125 2.53125 0 0.0218-5.5e-4 0.0409 0 0.0625-0.40756-0.1509-0.82143-0.25-1.28125-0.25-2.08139 0-3.78125 1.69985-3.78125 3.78125 0 0.19468 3e-3 0.37574 0.0312 0.5625-0.42425-0.31994-0.92808-0.53125-1.5-0.53125-0.65935 0-1.26777 0.27436-1.71875 0.6875-0.34367-0.99224-1.29757-1.71875-2.40625-1.71875-0.11972 0-0.22844 0.0152-0.34375 0.0312-0.57266-1.35318-1.90771-2.28125-3.46875-2.28125-1.89726 0-3.45557 1.39398-3.71875 3.21875-1.03145 0.21124-1.84036 1.0445-2 2.09375-0.45559-0.67418-1.2194-1.125-2.09375-1.125-1.3882 0-2.54521 1.11586-2.5625 2.5-0.36191-0.19923-0.7767-0.3125-1.21875-0.3125-1.39896 0-2.53125 1.1323-2.53125 2.53125 0 0.47358 0.1486 0.9019 0.375 1.28125l-2.34375 1.25h245.9375l-4-10.03125-1.25-0.4375c5.5e-4 -0.0216 0-0.0407 0-0.0625 0-1.35542-1.06753-2.46359-2.40625-2.53125-0.0677-1.3387-1.17585-2.40624-2.53125-2.40625-1.39896 0-2.53127 1.13229-2.53125 2.53125 0 0.0203-4.8e-4 0.0423 0 0.0625-0.42629 0.0257-0.84363 0.13279-1.1875 0.34375 0.15737-0.32996 0.28125-0.70403 0.28125-1.09375 0-1.39896-1.13227-2.53126-2.53125-2.53125-1.26764 0-2.31379 0.94042-2.5 2.15625-0.33634-0.16504-0.69405-0.28125-1.09375-0.28125-0.19935 0-0.40762 0.0502-0.59375 0.0937-0.11516-1.29251-1.17772-2.31251-2.5-2.3125-0.4821 0-0.92868 0.14101-1.3125 0.375-0.5187-1.46273-1.89143-2.50001-3.53125-2.5-1.787 0-3.26827 1.23676-3.65625 2.90625-0.18613-0.0436-0.36315-0.0937-0.5625-0.0937-0.54038 0-1.05727 0.18019-1.46875 0.46875-0.41148-0.28857-0.89712-0.46875-1.4375-0.46875-1.39896 0-2.5625 1.13227-2.5625 2.53125 0 0.0203-4.8e-4 0.0423 0 0.0625-0.11828-0.017-0.25205-0.0312-0.375-0.0312-1.32229 0-2.38483 1.01999-2.5 2.3125-0.46496-0.56332-1.15059-0.9375-1.9375-0.9375-0.68372 0-1.29397 0.27813-1.75 0.71875-0.0328-2.05309-1.7204-3.71875-3.78125-3.71875-0.73145 0-1.4217 0.23281-2 0.59375-0.45098-0.41314-1.0594-0.65625-1.71875-0.65625-0.30427 0-0.57338 0.0578-0.84375 0.15625-0.22286-0.64346-0.70377-1.14717-1.3125-1.4375-0.24114-1.84938-1.80397-3.28124-3.71875-3.28125-1.63231 0-3.00694 1.04776-3.53125 2.5-0.42745-0.32872-0.95074-0.53126-1.53125-0.53125-0.71525 0-1.38281 0.30419-1.84375 0.78125-0.45559-0.67418-1.21939-1.12499-2.09375-1.125-1.2651 0-2.31073 0.94399-2.5 2.15625-0.36433-0.30071-0.81943-0.50333-1.3125-0.5625 5.3e-4 -0.0214 0-0.041 0-0.0625 0-1.39896-1.1323-2.53125-2.53125-2.53125-0.0987 0-0.18552 0.0203-0.28125 0.0312 0.0355-0.20782 0.0625-0.43834 0.0625-0.65625 0-2.08139-1.69988-3.74999-3.78125-3.75-1.9513 0-3.52555 1.47441-3.71875 3.375-0.1059-0.0135-0.20295-0.0312-0.3125-0.0312-0.47619 0-0.93177 0.14629-1.3125 0.375-0.27285-1.10523-1.27962-1.93749-2.46875-1.9375-1.16677 0-2.1432 0.80123-2.4375 1.875-0.46344-0.50588-1.10413-0.84375-1.84375-0.84375-0.93758 0-1.74913 0.52375-2.1875 1.28125-0.60881-0.42173-1.36009-0.6875-2.15625-0.6875-0.98525 0-1.85932 0.41181-2.53125 1.03125-0.0342-1.36925-1.15382-2.46874-2.53125-2.46875-1.21414 0-2.25284 0.85952-2.5 2-0.33527-0.73434-0.99855-1.28065-1.8125-1.4375 1e-3 -0.0302 0-0.0633 0-0.0937 0-1.39896-1.13229-2.53124-2.53125-2.53125-0.20984 0-0.42996 0.0456-0.625 0.0937-0.24982-1.83977-1.8108-3.24999-3.71875-3.25z" style="fill:#002673"/>
    <path id="path3541" d="m288.3125 469.5c-1.86012 0.46854-3.73362 0.44973-5.59375 0.59375l1.65625 0.53125c-2.78614 0.76745-5.1486 0.4913-7.71875 0.71875l-49.5625 29.625-9.40625 3.90625-6.25 5.34375 0.46875 0.6875-7.46875 3.875 3.34375 12.875c4.0827-0.1434 8.1673 0.78504 12.25-1.84375-1.86984-0.28932-3.67347-0.93165-5.375-2.0625 3.00941-0.50073 6.02184-0.656 9.03125-2.59375-1.83445-0.15949-3.50224-0.78004-5-1.78125 4.04301 0.0141 7.85389-0.3563 10.5625-2.34375-2.91688-0.29308-5.96734-0.27918-8.40625-1.6875 1.85529-0.41438 3.62268-0.87124 4.15625-1.78125-1.88343 0.021-3.70516-0.0313-5.1875-0.8125l5.46875-3.03125c1.78846 1.21248 3.80903 1.70051 6.15625 1.125l6.65625 0.5-2.5 1.03125c2.8125 0.70827 5.62501 0.56314 8.4375-0.15625-1.43874-0.24716-2.91642-0.41606-4.125-1.46875 2.21726 0.20177 4.43899 2.1e-4 6.65625-0.75-2.44179-0.17549-4.56562-1.09888-6.65625-2.09375 3.22917 0.39618 6.45833 0.21845 9.6875-0.8125-2.51726-0.23159-3.87819-0.3031-6.28125-1.5625l1.40625-1.53125 4.5625-0.3125c1.92808 0.55506 4.30927 0.93383 6.875 0.15625-1.24132-0.1236-2.13956-0.82493-3.03125-1.53125 2.77498 0.13654 5.5522 0.24295 8.09375-0.4375-2.35035 0.10878-3.99026-0.9638-5.78125-1.75 2.45536 0.14928 4.91964 0.23317 7.375-0.4375-1.44077-0.29956-2.73428-1.15029-3.9375-2.28125 1.82212-0.0399 3.74686-0.59272 5.6875-1.34375 1.8416 0.81987 3.10004 0.32522 4.625 0.40625-1.62705 0.97167-3.39208 0.87534-5.09375 1.25 2.85312 0.64111 5.92698 0.42604 8.9375 0.4375-1.19048 0.70364-2.37202 1.23792-3.5625 1.4375 2.00131 0.41597 3.99369 0.15781 5.875-0.21875 2.39171 0.5947 5.4851-0.52829 8.1875-1.46875-2.05309 0.53091-4.05838-0.44751-6.03125-0.71875 2.01136-0.56331 4.03614-0.94785 5.96875-2.0625-1.98278 0.29719-3.70006-0.44081-5.4375-1.125 1.93452-0.2035 3.87798-0.49452 5.8125-1.28125-2.55635-0.0129-4.73247-0.85792-6.875-1.78125 1.32948-0.24386 2.65163-0.43645 4.0625-1.25-1.12877-0.02-2.12365-0.39103-3-1 3.61027-0.22082 7.26114-0.46565 11.53125-1.59375l-5.1875-0.96875c2.1289-0.19767 4.09934-0.94094 6.0625-1.71875-1.42857-0.0347-2.85267-0.18281-4.28125-0.71875 1.88386-0.0745 3.44413-0.69132 5.09375-1.15625-2.39758-0.11107-3.99227-0.81833-5.65625-1.5 1.72322-0.18753 3.41752-0.37147 5.46875-1.625-1.64271 0.086-3.09044-0.18219-4.3125-0.9375l6.65625-1.8125c-1.39713 0.055-2.78823 0.0747-3.9375-0.53125 1.91727-0.1238 3.69042-0.56711 5.1875-1.53125l-4.78125-0.71875 5.75-1.46875-6.34375-0.90625c1.33618-0.20751 2.58103-0.50704 3.5625-1.1875-1.88544-0.0473-3.23289-0.41294-4.53125-0.8125zm-60.21875 38.65625c0.37423 0.074 0.76114 0.13086 1.15625 0.1875-1.18422 0.72455-2.37829 0.90553-3.5625 1.125z" style="fill-rule:evenodd;fill:#002673"/>
    <path id="path3498" d="m200.2627 492.2326 58.84139-20.45558h27.27411l-86.87311 46.46701z" style="fill-rule:evenodd;fill:#ffffff;stroke-width:1px;stroke:#002673"/>
    <path id="path2662" d="m262.9151 476.1027-4.63657-1.71137 3.00754-57.49435h13.24577l1.2627 59.20572z" style="fill-rule:evenodd;fill:#ffffff;stroke-linejoin:round;stroke:#002673"/>
    <path id="path3441" d="m275.7945 476.1027-1.2627-59.20572h2.90422l3.03044 57.5301z" style="fill-rule:evenodd;fill:#002673;stroke-linejoin:round;stroke:#002673"/>
    <rect id="rect3443" x="267.2119" y="423.9796" width="4.285714" height="6.121735" style="fill:#002673;stroke-linecap:round;stroke:#002673"/>
    <rect id="rect3445" x="267.2119" y="442.5423" width="4.285714" height="6.121735" style="fill:#002673;stroke-linecap:round;stroke:#002673"/>
    <rect id="rect3447" x="267.2119" y="461.5" width="4.285714" height="6.121735" style="fill:#002673;stroke-linecap:round;stroke:#002673"/>
    <rect id="rect3449" x="258.4252" y="413.216" width="21.92992" height="3.669688" style="fill:#ffffff;stroke-linecap:round;stroke:#002673"/>
    <path id="path3453" d="m259.9513 413.2241v3.64902" style="fill:none;stroke:#002673"/>
    <path id="path3455" d="m261.6079 413.2241v3.64902" style="fill:none;stroke:#002673"/>
    <path id="path3457" d="m266.3777 413.2241v3.64902" style="fill:none;stroke:#002673"/>
    <path id="path3463" d="m272.4027 413.2241v3.64902" style="fill:none;stroke:#002673"/>
    <rect id="rect3465" x="277.2469" y="413.216" width="3.930175" height="3.669688" style="fill:#002673;stroke-linecap:round;stroke:#002673"/>
    <path id="path3467" d="m261.25 416.9196h13.52678l0.0893 2.96942h-10.7143l-3.11034 1.63074z" style="fill-rule:evenodd;fill:#002673"/>
    <path id="path3469" d="m269.3548 391.8265-9.03808 5.17858v3.92856h18.07614v-3.92856l-9.03806-5.17858" style="fill-rule:evenodd;fill:#ffffff;stroke:#002673"/>
    <path id="path3474" d="m269.3548 391.8265 5.24764 5.17858v3.92856h3.79042v-3.92856l-9.03806-5.17858" style="fill-rule:evenodd;fill:#002673;stroke:#002673"/>
    <path id="path3478" d="m260.2679 397.005h18.03572" style="fill:none;stroke:#002673"/>
    <rect id="rect3480" x="262.3469" y="400.9411" width="14.01587" height="12.27967" style="fill:#ffffff;stroke-linecap:round;stroke:#002673"/>
    <rect id="rect3494" x="272.8272" y="400.9411" width="3.535533" height="12.27967" style="fill:#002673;stroke-linecap:round;stroke:#002673"/>
    <rect id="rect3482" x="265.4405" y="403.2455" width="7.828682" height="7.41831" style="fill:#ffffff;stroke-linecap:round;stroke:#002673"/>
    <rect id="rect3486" x="274.5741" y="403.2455" width="1.772858" height="7.41831" style="fill:#ffffff;stroke-linecap:round;stroke:#002673"/>
    <rect id="rect3490" transform="scale(-1,1)" x="-264.1355" y="403.2455" width="1.772858" height="7.41831" style="fill:#ffffff;stroke-linecap:round;stroke:#002673"/>
    <path id="rect3506" d="m263.406 489.1462c0.61594-1.25584 2.53238-2.73762 4.01522-1.35326v4.86577c-1.2801 0.52474-2.61608 0.5466-4.01522 0z" style="fill:#ffffff;stroke-linecap:round;stroke:#002673"/>
    <path id="path3509" d="m271.7485 483.8294c0.58515-1.19303 2.40576-2.60073 3.81446-1.28558v4.62247c-1.33608 0.51671-2.59724 0.43416-3.81446 0z" style="fill:#ffffff;stroke-linecap:round;stroke:#002673"/>
    <path id="path3511" d="m254.0979 495.0745c0.64837-1.32192 2.66566-2.8817 4.22655-1.42446v5.12185c-1.35416 0.54687-2.7535 0.64202-4.22655 0z" style="fill:#ffffff;stroke-linecap:round;stroke:#002673"/>
    <path id="path3513" d="m243.3978 501.7942c0.68249-1.39149 2.80596-3.03337 4.449-1.49944v5.39143c-1.483 0.70087-2.966 0.60726-4.449 0z" style="fill:#ffffff;stroke-linecap:round;stroke:#002673"/>
    <path id="path3515" d="m230.5042 510.0503c0.71841-1.46473 2.95364-3.19302 4.68316-1.57836v5.67519c-1.56105 0.5914-3.12211 0.82867-4.68316 0z" style="fill:#ffffff;stroke-linecap:round;stroke:#002673"/>
    <path id="path3552" d="m282.1482 509.4683c-2.01938 0.19033-5.82321 0.50819-8.00222 0.53889 1.79041 1.88561 6.6627 1.25813 8.00222-0.53889z" style="fill-rule:evenodd;fill:#002673"/>
    <path id="path3554" d="m279.007 506.8832c-1.81567 0.27449-5.07099 0.51311-6.80262-0.35474 1.07045 2.25227 5.03509 2.73427 6.80262 0.35474z" style="fill-rule:evenodd;fill:#002673"/>
    <g id="g5153" style="stroke:#002673">
     <path id="path2470" d="m360.7155 410.8c6.10407-0.12271 12.80242 0.34353 18.93601 1.31475l-0.0499 0.54511c-6.10377 0.11942-12.80212-0.34683-18.93571-1.31805z" style="fill-rule:evenodd;fill:#002673"/>
     <path id="path2575" d="m419.4137 472.6121c-29.58632 0.38793-51.1564-0.37285-71.35408-0.86982l48.32261 4.26214z" style="fill-rule:evenodd;fill:#ffffff"/>
     <path id="path2579" d="m416.3718 469.4807 0.86912 4.17516" style="fill:none"/>
     <path id="path2486" d="m412.5043 418.7699-0.7822-0.0435-7.344 57.278 2.08587 0.17396z" style="fill-rule:evenodd;fill:#002673"/>
     <path id="path2488" d="m396.0346 470.0026c9.0326 0.27236 15.815-0.58131 27.72466 1.13077-4.69164-8.07762-6.54333-15.87102-6.60525-23.48529l-17.81678 12.87342z" style="fill-rule:evenodd;fill:#ffffff"/>
     <path id="path4451" d="m406.5132 421.7441c3.22963 0.25557 6.80283 0.97706 10.10118 2.03721v0.39727c-3.22963-0.25797-6.80284-0.97947-10.10118-2.03961z" style="fill-rule:evenodd;fill:#002673"/>
     <path id="path1349" d="m415.1915 423.6399c-0.74873 1.71774-0.49531 3.643 0.13823 5.46449-2.70697-1.418-6.93444-2.49014-7.6371-1.00297-1.09431-1.62552-1.3938-4.39235-0.13823-5.94869 2.40747 0.11528 5.02229 0.61101 7.6371 1.48717z" style="fill-rule:evenodd;fill:#ffffff"/>
     <path id="path3238" d="m405.7904 427.9349c3.50492 0.27735 7.3827 1.06034 10.96219 2.21085v0.43114c-3.50491-0.27996-7.3827-1.06296-10.96219-2.21347z" style="fill-rule:evenodd;fill:#002673"/>
     <path id="path1355" d="m415.157 430.0382c-0.26494 2.45556-0.52988 4.7382 0.44924 7.09001-3.2714-2.00595-7.13027-2.76683-9.39952-1.24508-1.42835-2.36333-0.99063-6.04091 0.58747-7.40127 2.85672 0.21904 5.74799 0.68018 8.36281 1.55634z" style="fill-rule:evenodd;fill:#ffffff"/>
     <path id="path3240" d="m404.7882 435.7959c3.85848 0.30533 8.12744 1.16731 12.06802 2.43389v0.47462c-3.85848-0.3082-8.12745-1.17018-12.06802-2.43675z" style="fill-rule:evenodd;fill:#002673"/>
     <path id="path1306" d="m415.2261 438.2695c-1.11734 2.62849-0.78329 5.18781-0.0346 7.71254-3.54785-1.77538-7.44128-2.34028-10.12521-1.48717-2.59178-2.36334-1.07127-6.3176 0.76026-8.0584 3.17924-0.0461 5.97836 0.73782 9.39951 1.83303z" style="fill-rule:evenodd;fill:#ffffff"/>
     <path id="path3242" d="m401.6781 444.2454c5.1291 0.40588 10.80384 1.55171 16.04207 3.23537v0.63092c-5.1291-0.40969-10.80385-1.55553-16.04207-3.23919z" style="fill-rule:evenodd;fill:#002673"/>
     <path id="path2464" d="m402.4054 444.737c5.83156 0.49322 10.21599 1.31219 14.03016 2.90517-1.63256 3.643-1.31709 7.28599-0.9676 10.92899-4.54678-3.21121-8.89695-5.03326-12.7861-3.38937-1.26296-3.49076-1.11052-7.19318-0.27646-10.44479z" style="fill-rule:evenodd;fill:#ffffff"/>
     <path id="path3282" d="m392.1771 400.6218c4.66882-0.40464 9.81788-0.23475 14.55609 0.47687l-0.0149 0.55919c-4.66873 0.40126-9.81779 0.23137-14.55599-0.48025z" style="fill-rule:evenodd;fill:#002673"/>
     <path id="path2484" d="m400.3367 397.7201-0.7822-0.0435-12.21102 78.1538 2.08587 0.17397z" style="fill-rule:evenodd;fill:#002673"/>
     <path id="path3268" d="m405.4081 401.1947c-2.287 1.90591-2.02646 5.01954-0.82936 8.57718-9.53393-4.45494-12.29759-3.00275-14.79041-1.31424 0.80096-2.48879 1.52715-5.34005 3.9395-7.47045 4.50337-0.80918 8.59059-0.21581 11.68027 0.20751z" style="fill-rule:evenodd;fill:#ffffff"/>
     <path id="path4463" d="m387.9385 409.0261c5.72733-0.20611 12.00583 0.31911 17.74914 1.48065l-0.0526 0.68206c-5.72702 0.202-12.00551-0.32322-17.74882-1.48476z" style="fill-rule:evenodd;fill:#002673"/>
     <path id="path3270" d="m404.7861 410.6711c-4.81114-0.92608-9.95622-1.37962-15.75801-1.24508-2.03685 2.59593-3.73873 5.52709-4.49241 9.40724 2.77464-2.14041 9.02537-4.30963 19.83573 1.72927-1.11641-3.62758-1.91492-7.17144 0.41469-9.89143z" style="fill-rule:evenodd;fill:#ffffff"/>
     <path id="path3288" d="m383.5156 418.2136c7.1234 0.17619 14.90588 1.08614 22.00102 2.56846l-0.0894 0.64744c-7.12287-0.1801-14.90535-1.09006-22.00049-2.57237z" style="fill-rule:evenodd;fill:#002673"/>
     <path id="path3274" d="m404.0258 421.185c-2.5208 4.59357-1.6281 9.84412 0.62203 15.35592-9.43595-4.8535-17.56375-6.18846-24.0517-3.11268-0.76897-5.83921-0.13345-11.02965 3.87039-14.66421 9.05185 0.41712 15.29605 1.26654 19.55928 2.42097z" style="fill-rule:evenodd;fill:#ffffff"/>
     <path id="path3290" d="m378.9038 433.9154c8.63895 0.19513 18.0772 1.20295 26.68187 2.84468l-0.10841 0.71707c-8.63829-0.19947-18.07655-1.20729-26.68122-2.84902z" style="fill-rule:evenodd;fill:#002673"/>
     <path id="path3276" d="m404.3714 437.3018c-3.68414 5.90768-2.08718 10.99266-0.62202 16.39348-14.89683-6.8024-23.20179-6.7947-26.67803-1.79844-1.36968-5.00159-3.21066-11.32537 2.90279-17.36187 7.9326 0.13457 16.14335 1.00146 24.39726 2.76683z" style="fill-rule:evenodd;fill:#ffffff"/>
     <path id="path3292" d="m374.9282 451.6399c11.20309-0.17804 23.47837 0.59117 34.70194 2.1692l-0.10832 0.87485c-11.20244 0.17276-23.47772-0.59645-34.70128-2.17448z" style="fill-rule:evenodd;fill:#002673"/>
     <path id="path3278" d="m408.1036 454.3178c-4.51532 6.34277-6.36999 13.27975-6.84229 19.99037-12.86508-5.07774-25.26331-7.44453-29.30436-4.42694-1.79804-5.75994 0.62443-12.75668 4.83798-17.50021 8.68613-0.27509 20.79262-0.0676 31.30867 1.93678z" style="fill-rule:evenodd;fill:#ffffff"/>
     <path id="path2482" d="m371.656 400.6775-0.7822-0.0435-11.68956 74.50053 2.08587 0.17397z" style="fill-rule:evenodd;fill:#002673"/>
     <path id="path2468" d="m363.3812 403.5767c5.58095-0.29117 11.72346 4e-3 17.36456 0.83026l-0.0291 0.55871c-5.58078 0.2878-11.72329-7e-3 -17.36439-0.83363z" style="fill-rule:evenodd;fill:#002673"/>
     <path id="path2422" d="m379.4491 404.6922c-1.57999 2.32909-1.938 4.59995-0.78193 6.79865-6.98912-1.76771-12.71664-2.40073-16.17631-0.39129 0.41753-2.44138 0.71-4.94656 2.98113-7.14103 4.65904-0.17387 9.31808 0.26895 13.97711 0.73367z" style="fill-rule:evenodd;fill:#ffffff"/>
     <path id="path2424" d="m378.5205 412.3713c-0.91053 2.74417-1.1725 5.53828-0.39097 8.41272-6.61533-1.25352-13.17408-3.21489-20.03712-1.36951 0.0113-4.50233 1.8822-6.34585 3.66532-8.3149 5.58353 0.41713 10.8178 0.25167 16.76277 1.27169z" style="fill-rule:evenodd;fill:#ffffff"/>
     <path id="path2434" d="m394.5571 433.209c-9.74402 13.59029-14.5415 24.95581-17.20841 35.57585-5.58864-2.31175-8.19213-2.77741-13.73197-2.60947 9.71746-10.91012 20.77586-22.27998 30.94038-32.96638z" style="fill-rule:evenodd;fill:#ffffff"/>
     <path id="path2432" d="m377.3487 460.5215c1.73389-12.53271 5.61224-25.59102 18.59899-40.88179-13.36455 11.37766-26.4919 23.94233-39.6315 36.44568 6.57402 0.0943 13.1055 0.0538 21.03251 4.43611z" style="fill-rule:evenodd;fill:#ffffff"/>
     <path id="path2436" d="m366.5717 433.5569c7.65389-6.24421 11.69894-8.44413 22.59691-14.26514-4.31917 5.45645-7.67605 9.37393-8.5173 16.17875-5.9644-2.81084-9.35217-1.37239-14.07961-1.91361z" style="fill-rule:evenodd;fill:#ffffff"/>
     <path id="path2472" d="m356.2054 419.3278c7.24972-0.14521 15.20526 0.40653 22.49006 1.55583l-0.0593 0.64506c-7.24937 0.14132-15.20491-0.41042-22.4897-1.55973z" style="fill-rule:evenodd;fill:#002673"/>
     <path id="path2474" d="m350.2672 431.8542c9.1219-0.15084 19.82717 0.44402 28.99319 1.63784l-0.0745 0.67005c-9.12144 0.1468-19.82672-0.44807-28.99274-1.64189z" style="fill-rule:evenodd;fill:#002673"/>
     <path id="path2426" d="m377.6409 421.1753c-2.33325 3.68047-1.37327 7.78623 0.29322 11.98323-9.82723-2.22165-19.13308-2.72919-25.95051-1.22278-0.0622-4.18916 0.7858-8.11834 5.86452-12.17888 6.7554 0.11821 13.16753 0.58351 19.79277 1.41843z" style="fill-rule:evenodd;fill:#ffffff"/>
     <path id="path2428" d="m345.9236 453.2121c10.15582-4.76745 20.78026-3.75048 31.7173 1.12495-2.06016-8.70704-3.20931-16.61086 0.14661-20.54268-8.87314-1.07292-17.59183-1.06385-26.34148-1.27169-7.37936 5.23027-6.74766 14.11833-5.52243 20.68942z" style="fill-rule:evenodd;fill:#ffffff"/>
     <path id="path2476" d="m341.3365 452.9048c11.72058-0.15646 24.58225 0.43803 36.35953 1.67637l-0.0958 0.69504c-11.72001 0.15227-24.58168-0.44222-36.35896-1.68057z" style="fill-rule:evenodd;fill:#002673"/>
     <path id="path2430" d="m346.7544 469.206c4.25016-3.78758 10.90141-4.37312 21.50325 1.07604 0.02-8.16074 4.14839-13.38036 8.21033-15.50484-10.60515-0.8813-21.2284-1.44834-32.59697-1.02713-0.89137 5.15198 1.30492 10.30395 2.88339 15.45593z" style="fill-rule:evenodd;fill:#ffffff"/>
     <path id="path2420" d="m364.6974 432.6318c-11.47311 9.9023-13.87594 23.21292-17.63311 32.85127-3.97929-0.73429-8.29831-0.28054-11.81156 1.97934 8.00348-16.67862 17.09633-29.06869 29.44467-34.83061z" style="fill-rule:evenodd;fill:#ffffff"/>
     <path id="path2418" d="m364.6778 432.61c-11.33488 9.00308-18.13442 20.44123-21.89159 30.07958-3.88154 0.0483-7.61411 0.99114-11.12736 3.25102 8.00348-16.67862 20.67061-27.56867 33.01895-33.3306z" style="fill-rule:evenodd;fill:#ffffff"/>
     <path id="path2416" d="m364.7152 432.5547c-13.82298 8.17303-20.72908 17.66051-24.48625 27.29886-3.88154 0.0483-7.19943 1.19866-10.71268 3.45854 8.00348-16.67862 22.8506-24.99548 35.19893-30.7574z" style="fill-rule:evenodd;fill:#ffffff"/>
     <path id="path2490" d="m415.4375 458.5209c2.17123 4.50228 5.12167 8.53665 8.14792 12.52549" style="fill:none"/>
     <path id="path2492" d="m380.6079 435.3836c4.05977 8.98784 6.42356 11.48211 11.25499 16.78763" style="fill:none"/>
     <path id="path2494" d="m347.1036 465.4795c1.74024 2.20457 3.93796 4.63806 6.60525 7.30654" style="fill:none"/>
     <path id="path2498" d="m342.845 462.6961c1.97668 2.92842 4.31102 5.85683 7.21363 8.78524" style="fill:none"/>
     <path id="path2500" d="m340.1507 459.9126c1.84776 4.05353 4.09161 8.00794 6.86598 11.82963" style="fill:none"/>
     <path id="path2502" d="m351.0602 478.7953c2.76876 0.87834 5.62564 1.44826 9.05914 0 3.76878 0.44501 7.31611 1.16684 12.37436 0 5.13495 1.37484 10.26989 0.57196 15.40483 0 2.98838 0.30901 5.97675 1.25134 8.96512 0 4.47248 0.89668 8.74336 0.78537 12.87943 0 2.22622 0.33261 4.52329 0.94864 6.4292 0-0.17115-0.55515-0.25773-1.16334-0.0917-1.73087 0.29486-0.85412 1.02671-1.45566 1.7669-1.92198 0.88933-0.43017 1.54071-1.40014 1.45901-2.40549-16.756 1.20287-32.53778 2.31668-63.26841-0.98409l-32.44849-7.50372-0.36874 1.23012 19.17412 5.16649c3.89856 0.54186 8.58384 5.31523 8.66522 8.14954z" style="fill-rule:evenodd;fill:#002673"/>
     <path id="path2577" d="m377.3487 468.6979 4.34556 5.56688" style="fill:none"/>
     <path id="path2581" d="m336.0659 468.263-0.99948 3.82723-0.43455-0.17397 0.69529-3.56628z" style="fill-rule:evenodd;fill:#002673"/>
     <path id="path2583" d="m342.4973 470.481-7.64819 1.34823-5.4754-5.30594" style="fill:none"/>
     <path id="path2585" d="m334.936 471.6988-9.08222-5.56689" style="fill:none"/>
    </g>
    <path id="path2684" d="m391.972 525.7453c-10.79426 0.40935-30.14733 0.76521-40.44197-0.52903 6.36389 3.35886 29.9339 4.07767 40.44197 0.52903z" style="fill-rule:evenodd;fill:#002673"/>
    <path id="path2686" d="m390.4293 530.7654c-9.2845 0.40935-25.93069 0.76521-34.78544-0.52903 5.47378 3.35886 25.74711 4.07767 34.78544 0.52903z" style="fill-rule:evenodd;fill:#002673"/>
    <path id="path2688" d="m376.5804 534.8994c-9.28449 0.40935-25.93069 0.76521-34.78544-0.52903 5.47379 3.35886 25.74712 4.07767 34.78544 0.52903z" style="fill-rule:evenodd;fill:#002673"/>
    <path id="path2690" d="m409.1082 522.5966c-7.27942 0.40935-20.33069 0.76521-27.27316-0.52903 4.29166 3.35886 20.18675 4.07767 27.27316 0.52903z" style="fill-rule:evenodd;fill:#002673"/>
    <path id="path2692" d="m385.5531 538.8735c-7.27941 0.40935-20.33069 0.76521-27.27316-0.52903 4.29166 3.35886 20.18676 4.07767 27.27316 0.52903z" style="fill-rule:evenodd;fill:#002673"/>
    <path id="path2694" d="m435.0726 525.6778c-7.27942 0.40935-20.33068 0.76521-27.27316-0.52903 4.29166 3.35886 20.18675 4.07767 27.27316 0.52903z" style="fill-rule:evenodd;fill:#002673"/>
    <path id="path2696" d="m327.9994 516.3707c-10.72475 0.40935-29.95316 0.76521-40.1815-0.52903 6.3229 3.35886 29.74111 4.07767 40.1815 0.52903z" style="fill-rule:evenodd;fill:#002673"/>
    <path id="path2698" d="m300.9498 522.4316c7.15232 0.40935 19.97572 0.76521 26.79698-0.52903-4.21673 3.35886-19.8343 4.07767-26.79698 0.52903z" style="fill-rule:evenodd;fill:#002673"/>
    <path id="path2700" d="m335.0704 526.2197c-7.15232 0.40935-19.97572 0.76521-26.79698-0.52903 4.21673 3.35886 19.8343 4.07767 26.79698 0.52903z" style="fill-rule:evenodd;fill:#002673"/>
    <path id="path2702" d="m335.828 492.1271c-7.15232 0.40935-19.97572 0.76521-26.79698-0.52903 4.21673 3.35886 19.8343 4.07767 26.79698 0.52903z" style="fill-rule:evenodd;fill:#002673"/>
    <path id="path2704" d="m329.262 496.1677c-5.53462 0.40935-15.45763 0.76521-20.73606-0.52903 3.26299 3.35886 15.34819 4.07767 20.73606 0.52903z" style="fill-rule:evenodd;fill:#002673"/>
    <path id="path2706" d="m306.2532 500.4608c3.6473 0.40935 10.18652 0.76521 13.66499-0.52903-2.1503 3.35886-10.1144 4.07767-13.66499 0.52903z" style="fill-rule:evenodd;fill:#002673"/>
    <path id="path2708" d="m308.526 486.0662c3.6473 0.40935 10.18652 0.76521 13.66499-0.52903-2.1503 3.35886-10.1144 4.07767-13.66499 0.52903z" style="fill-rule:evenodd;fill:#002673"/>
    <path id="path2710" d="m300.4727 536.195c-3.6473 0.40935-10.18652 0.76521-13.66499-0.52903 2.1503 3.35886 10.1144 4.07767 13.66499 0.52903z" style="fill-rule:evenodd;fill:#002673"/>
    <path id="path2712" d="m289.8382 539.8568c7.72527 0.40935 21.57587 0.76521 28.94355-0.52903-4.55451 3.35886-21.42311 4.07767-28.94355 0.52903z" style="fill-rule:evenodd;fill:#002673"/>
    <path id="path2714" d="m320.4232 543.7711c-3.6473 0.40935-10.18652 0.76521-13.66499-0.52903 2.1503 3.35886 10.1144 4.07767 13.66499 0.52903z" style="fill-rule:evenodd;fill:#002673"/>
    <path id="path2716" d="m319.1326 545.7914c3.07437 0.40935 8.58637 0.76521 11.51842-0.52903-1.81252 3.35886-8.52557 4.07767-11.51842 0.52903z" style="fill-rule:evenodd;fill:#002673"/>
    <path id="path2718" d="m307.5158 519.6537c3.07437 0.40935 8.58637 0.76521 11.51842-0.52903-1.81252 3.35886-8.52557 4.07767-11.51842 0.52903z" style="fill-rule:evenodd;fill:#002673"/>
    <path id="path2720" d="m380.9022 535.7453c10.79426 0.40935 30.14733 0.76521 40.44197-0.52903-6.36389 3.35886-29.9339 4.07767-40.44197 0.52903z" style="fill-rule:evenodd;fill:#002673"/>
    <path id="path2722" d="m365.302 542.5511c9.2845 0.40935 25.93069 0.76521 34.78544-0.52903-5.47378 3.35886-25.74711 4.07767-34.78544 0.52903z" style="fill-rule:evenodd;fill:#002673"/>
    <path id="path2724" d="m425.0437 521.328c9.28449 0.40935 25.93069 0.76521 34.78544-0.52903-5.47379 3.35886-25.74712 4.07767-34.78544 0.52903z" style="fill-rule:evenodd;fill:#002673"/>
    <path id="path2726" d="m350.016 546.168c7.27942 0.40935 20.33069 0.76521 27.27316-0.52903-4.29166 3.35886-20.18675 4.07767-27.27316 0.52903z" style="fill-rule:evenodd;fill:#002673"/>
    <path id="path2728" d="m386.7854 528.5163c7.27941 0.40935 20.33069 0.76521 27.27316-0.52903-4.29166 3.35886-20.18676 4.07767-27.27316 0.52903z" style="fill-rule:evenodd;fill:#002673"/>
    <path id="path2730" d="m372.9801 548.3564c7.27942 0.40935 20.33068 0.76521 27.27316-0.52903-4.29166 3.35886-20.18675 4.07767-27.27316 0.52903z" style="fill-rule:evenodd;fill:#002673"/>
    <path id="path2732" d="m248.5351 531.7279c-10.72475 0.40935-29.95316 0.76521-40.1815-0.52903 6.3229 3.35886 29.74111 4.07767 40.1815 0.52903z" style="fill-rule:evenodd;fill:#002673"/>
    <path id="path2734" d="m221.4856 537.7888c7.15232 0.40935 19.97572 0.76521 26.79698-0.52903-4.21673 3.35886-19.8343 4.07767-26.79698 0.52903z" style="fill-rule:evenodd;fill:#002673"/>
    <path id="path2736" d="m243.7658 534.118c3.07437 0.40935 8.58637 0.76521 11.51842-0.52903-1.81252 3.35886-8.52557 4.07767-11.51842 0.52903z" style="fill-rule:evenodd;fill:#002673"/>
    <path id="path2738" d="m223.4087 547.868c3.07437 0.40935 8.58637 0.76521 11.51842-0.52903-1.81252 3.35886-8.52557 4.07767-11.51842 0.52903z" style="fill-rule:evenodd;fill:#002673"/>
    <path id="path2740" d="m238.8557 552.1537c-3.07437 0.40935-8.58637 0.76521-11.51842-0.52903 1.81252 3.35886 8.52557 4.07767 11.51842 0.52903z" style="fill-rule:evenodd;fill:#002673"/>
    <path id="path2742" d="m223.2713 557.2531c8.86816 0.40935 24.76788 0.76521 33.22555-0.52903-5.22832 3.35886-24.59253 4.07767-33.22555 0.52903z" style="fill-rule:evenodd;fill:#002673"/>
    <path id="path2744" d="m248.9968 562.0745c-7.15232 0.40935-19.97572 0.76521-26.79698-0.52903 4.21673 3.35886 19.8343 4.07767 26.79698 0.52903z" style="fill-rule:evenodd;fill:#002673"/>
    <path id="path2746" d="m232.5158 567.1537c3.07437 0.40935 8.58637 0.76521 11.51842-0.52903-1.81252 3.35886-8.52557 4.07767-11.51842 0.52903z" style="fill-rule:evenodd;fill:#002673"/>
    <path id="path2748" d="m242.4271 572.1537c-3.07437 0.40935-8.58637 0.76521-11.51842-0.52903 1.81252 3.35886 8.52557 4.07767 11.51842 0.52903z" style="fill-rule:evenodd;fill:#002673"/>
    <path id="path2752" d="m432.8335 502.5962c-5.53462 0.40935-15.45763 0.76521-20.73606-0.52903 3.26299 3.35886 15.34819 4.07767 20.73606 0.52903z" style="fill-rule:evenodd;fill:#002673"/>
    <path id="path2754" d="m426.7403 494.9177c5.53462 0.40935 15.45763 0.76521 20.73606-0.52903-3.26299 3.35886-15.34819 4.07767-20.73606 0.52903z" style="fill-rule:evenodd;fill:#002673"/>
    <path id="path2756" d="m427.8117 505.2748c6.34488 0.40935 17.72059 0.76521 23.77177-0.52903-3.74068 3.35886-17.59513 4.07767-23.77177 0.52903z" style="fill-rule:evenodd;fill:#002673"/>
    <path id="path2758" d="m457.8335 501.3462c-5.53462 0.40935-15.45763 0.76521-20.73606-0.52903 3.26299 3.35886 15.34819 4.07767 20.73606 0.52903z" style="fill-rule:evenodd;fill:#002673"/>
    <path id="path2760" d="m447.276 498.132c5.53462 0.40935 15.45763 0.76521 20.73606-0.52903-3.26299 3.35886-15.34819 4.07767-20.73606 0.52903z" style="fill-rule:evenodd;fill:#002673"/>
    <path id="path2762" d="m451.2046 509.2034c5.53462 0.40935 15.45763 0.76521 20.73606-0.52903-3.26299 3.35886-15.34819 4.07767-20.73606 0.52903z" style="fill-rule:evenodd;fill:#002673"/>
    <path id="path2764" d="m427.8117 513.6677c3.86645 0.40935 10.79859 0.76521 14.48606-0.52903-2.2795 3.35886-10.72213 4.07767-14.48606 0.52903z" style="fill-rule:evenodd;fill:#002673"/>
    <path id="path2766" d="m469.2621 515.4534c-3.86645 0.40935-10.79859 0.76521-14.48606-0.52903 2.2795 3.35886 10.72213 4.07767 14.48606 0.52903z" style="fill-rule:evenodd;fill:#002673"/>
    <path id="path2768" d="m440.6689 525.9891c5.53462 0.40935 15.45763 0.76521 20.73606-0.52903-3.26299 3.35886-15.34819 4.07767-20.73606 0.52903z" style="fill-rule:evenodd;fill:#002673"/>
    <path id="path2770" d="m471.5835 529.2034c-3.86645 0.40935-10.79859 0.76521-14.48606-0.52903 2.2795 3.35886 10.72213 4.07767 14.48606 0.52903z" style="fill-rule:evenodd;fill:#002673"/>
    <path id="path2772" d="m472.4763 522.7748c-3.86645 0.40935-10.79859 0.76521-14.48606-0.52903 2.2795 3.35886 10.72213 4.07767 14.48606 0.52903z" style="fill-rule:evenodd;fill:#002673"/>
    <path id="path2774" d="m442.2155 549.4278c-7.27942 0.40935-20.33068 0.76521-27.27316-0.52903 4.29166 3.35886 20.18675 4.07767 27.27316 0.52903z" style="fill-rule:evenodd;fill:#002673"/>
    <path id="path2776" d="m449.0617 548.3105c3.86645 0.40935 10.79859 0.76521 14.48606-0.52903-2.2795 3.35886-10.72213 4.07767-14.48606 0.52903z" style="fill-rule:evenodd;fill:#002673"/>
    <path id="path2778" d="m439.2403 531.882c3.86645 0.40935 10.79859 0.76521 14.48606-0.52903-2.2795 3.35886-10.72213 4.07767-14.48606 0.52903z" style="fill-rule:evenodd;fill:#002673"/>
    <path id="path2780" d="m485.4903 497.4177c3.86645 0.40935 10.79859 0.76521 14.48606-0.52903-2.2795 3.35886-10.72213 4.07767-14.48606 0.52903z" style="fill-rule:evenodd;fill:#002673"/>
    <path id="path2782" d="m477.9298 542.6421c-7.27942 0.40935-20.33068 0.76521-27.27316-0.52903 4.29166 3.35886 20.18675 4.07767 27.27316 0.52903z" style="fill-rule:evenodd;fill:#002673"/>
    <path id="path2784" d="m460.3117 494.0248c3.86645 0.40935 10.79859 0.76521 14.48606-0.52903-2.2795 3.35886-10.72213 4.07767-14.48606 0.52903z" style="fill-rule:evenodd;fill:#002673"/>
    <path id="path2786" d="m365.3868 481.5332c-7.15232 0.40935-19.97572 0.76521-26.79698-0.52903 4.21673 3.35886 19.8343 4.07767 26.79698 0.52903z" style="fill-rule:evenodd;fill:#002673"/>
    <path id="path2788" d="m360.5173 483.2396c3.6473 0.40935 10.18652 0.76521 13.66499-0.52903-2.1503 3.35886-10.1144 4.07767-13.66499 0.52903z" style="fill-rule:evenodd;fill:#002673"/>
    <path id="path2790" d="m405.042 483.0484c3.6473 0.40935 10.18652 0.76521 13.66499-0.52903-2.1503 3.35886-10.1144 4.07767-13.66499 0.52903z" style="fill-rule:evenodd;fill:#002673"/>
    <path id="path2796" d="m387.6602 485.3825c3.6473 0.40935 10.18652 0.76521 13.66499-0.52903-2.1503 3.35886-10.1144 4.07767-13.66499 0.52903z" style="fill-rule:evenodd;fill:#002673"/>
    <path id="path2798" d="m400.2082 482.0689c-7.15232 0.40935-19.97572 0.76521-26.79698-0.52903 4.21673 3.35886 19.8343 4.07767 26.79698 0.52903z" style="fill-rule:evenodd;fill:#002673"/>
    <path id="path2800" d="m435.3117 553.4891c3.86645 0.40935 10.79859 0.76521 14.48606-0.52903-2.2795 3.35886-10.72213 4.07767-14.48606 0.52903z" style="fill-rule:evenodd;fill:#002673"/>
    <path id="path2802" d="m512.6549 492.9534c-5.53462 0.40935-15.45763 0.76521-20.73606-0.52903 3.26299 3.35886 15.34819 4.07767 20.73606 0.52903z" style="fill-rule:evenodd;fill:#002673"/>
    <path id="path2804" d="m526.0478 504.5605c-5.53462 0.40935-15.45763 0.76521-20.73606-0.52903 3.26299 3.35886 15.34819 4.07767 20.73606 0.52903z" style="fill-rule:evenodd;fill:#002673"/>
    <path id="path2806" d="m477.9298 542.6421c-7.27942 0.40935-20.33068 0.76521-27.27316-0.52903 4.29166 3.35886 20.18675 4.07767 27.27316 0.52903z" style="fill-rule:evenodd;fill:#002673"/>
    <path id="path2808" d="m486.9188 514.5605c3.86645 0.40935 10.79859 0.76521 14.48606-0.52903-2.2795 3.35886-10.72213 4.07767-14.48606 0.52903z" style="fill-rule:evenodd;fill:#002673"/>
    <path id="path2810" d="m496.5617 518.4891c3.86645 0.40935 10.79859 0.76521 14.48606-0.52903-2.2795 3.35886-10.72213 4.07767-14.48606 0.52903z" style="fill-rule:evenodd;fill:#002673"/>
    <path id="path2812" d="m509.776 525.9891c5.53462 0.40935 15.45763 0.76521 20.73606-0.52903-3.26299 3.35886-15.34819 4.07767-20.73606 0.52903z" style="fill-rule:evenodd;fill:#002673"/>
    <path id="path2814" d="m515.6688 521.5248c3.86645 0.40935 10.79859 0.76521 14.48606-0.52903-2.2795 3.35886-10.72213 4.07767-14.48606 0.52903z" style="fill-rule:evenodd;fill:#002673"/>
    <path id="path2816" d="m503.3474 532.5962c3.86645 0.40935 10.79859 0.76521 14.48606-0.52903-2.2795 3.35886-10.72213 4.07767-14.48606 0.52903z" style="fill-rule:evenodd;fill:#002673"/>
    <path id="path2818" d="m511.026 537.4177c3.86645 0.40935 10.79859 0.76521 14.48606-0.52903-2.2795 3.35886-10.72213 4.07767-14.48606 0.52903z" style="fill-rule:evenodd;fill:#002673"/>
    <path id="path2820" d="m507.8387 541.6325c2.78938 0.40935 7.79044 0.76521 10.4507-0.52903-1.64451 3.35886-7.73529 4.07767-10.4507 0.52903z" style="fill-rule:evenodd;fill:#002673"/>
    <path id="path2822" d="m500.8474 554.5605c3.86645 0.40935 10.79859 0.76521 14.48606-0.52903-2.2795 3.35886-10.72213 4.07767-14.48606 0.52903z" style="fill-rule:evenodd;fill:#002673"/>
    <path id="path2824" d="m508.1688 549.382c3.86645 0.40935 10.79859 0.76521 14.48606-0.52903-2.2795 3.35886-10.72213 4.07767-14.48606 0.52903z" style="fill-rule:evenodd;fill:#002673"/>
    <path id="path2826" d="m478.686 476.0702c-3.19831-9.26552-0.4484-15.98181 0.75761-23.35977-8.79823 6.06091-10.88127 11.74302-10.85914 18.18274 1.78837 4.20665 5.90423 5.4413 10.10153 5.17703z" style="fill-rule:evenodd;fill:#ffffff;stroke-width:1px;stroke:#002673"/>
    <path id="path2828" d="m489.0401 479.45 2.02031-3.00099c-6.29458 0.81151-14.27289 0.51255-19.82425 0l1.76777 3.10817c2.75325 0.37278 5.5592 0.61135 8.78179-0.21101 1.59139 0.37128 4.43712 1.25497 7.25438 0.10383z" style="fill-rule:evenodd;fill:#002673;stroke-width:1px;stroke:#002673"/>
    <path id="rect6879" d="m337.9688 319.625-59.15625 25.53125-48.53125 46.84375-25.59375 66.78125h15.21875c2.20773-5.76345 5.45931-12.22297 10.5625-14.28125-5.16258-0.57199-3.8227-12.26104 1.9375-14.03125-3.16066-7.01567 9.88303-19.05189 14.71875-17.5-4.81837-7.33806 2.89624-18.38907 11.65625-16.65625-1.58828-9.28466 5.75334-15.08268 13.0625-13.3125-2.17527-7.33507 10.10188-22.63907 24.9375-12.34375 4.92639-5.97195 18.3673-4.65556 20.09375 1.21875 6.56702-18.99852 34.8958-11.71477 36.0625-4.34375 3.75905-7.23058 12.00631-15.65599 27.75-15.78125 16.08152-0.12658 34.09232 8.60454 54.28125 24.46875 8.42123-7.18445 17.41423-12.11725 31.84375-9.40625 9.27969 1.74345 13.93347 8.79162 18.46875 16.75 13.90455 6.0873 15.96321 16.2878 18.3125 26.375 13.0364 6.55787 19.16973 31.79496 19.0625 48.84375h23.5l-33.6875-74.28125-36.25-36.3125-58.3125-28.5625zm-20.28125 25.59375c6.13412 0.0662 13.98811 2.33317 12 6.53125-2.84769 6.01322-12.22715 5.04165-18.65625 2.21875-5.2494 7.52088-13.41419 10.37857-15.75 6.84375-1.81231-2.74258-0.80148-9.2322 11.96875-10.4375 2.84456-2.25692 4.60889-5.21914 10.4375-5.15625z" style="fill:#002673"/>
    <path id="path6896" d="m443.0312 624.7188c-5.08227 0.0377-10.13648 0.75731-15.21875 2.34375-10.76204-1.223-19.83022 0.39218-27.75 3.90625-9.83858-1.27442-19.69268-1.76872-29.53125 0.71875-9.0951-3.79884-16.59244-2.07629-23.8125 0.6875-25.28547-1.57765-31.60651 2.85683-39.46875 6.78125v12.4375l1.46875 0.1875 10.71875-14.9375-6.4375 15.5 0.5625 0.0625 11.65625-16.28125-6.40625 15.375 10.65625-14.84375-6.9375 16.78125 12.28125-17.125-6.40625 15.46875 10.3125-14.40625-6.125 14.78125 10.21875-14.25-5.75 13.90625 9.46875-13.21875-6.03125 14.59375 10.3125-14.40625-6.125 14.78125 10.21875-14.25-5.875 14.15625 10.65625-14.875-5.875 14.15625 10.15625-14.15625-6.15625 14.84375 10.25-14.28125-6.96875 16.78125 10-13.9375-6.3125 15.125 10.75-14.96875-6.125 14.78125 10.21875-14.25-7.1875 17.28125 17.65625 2.28125 7.375-2.125-4.375-1.46875-0.59375 1.46875-5.34375-1.78125 14.40625-20.09375-6.84375 16.53125 11.84375-16.53125-9.09375 21.875 16.59375-4.78125-0.5625-0.1875 14.375-20.09375-7.65625 18.53125 35.3125-10.1875 14.59375-8.1875-7.46875-7.8125c-6.53435-1.68033-13.09065-2.73592-19.625-2.6875z" style="fill-rule:evenodd;fill:#002673"/>
    <path id="path2544" d="m268.0873 614.1871c3.07437 0.40935 8.58637 0.76521 11.51842-0.52903-1.81252 3.35886-8.52557 4.07767-11.51842 0.52903z" style="fill-rule:evenodd;fill:#002673"/>
    <path id="path2487" d="m242.8822 586.5197 104.0162-1.5312v4.93885c1.11891 0.61283 2.17495 0.91666 3.73391 0.95925-2.01513 0.87114-3.96739 0.98841-6.04538 0.56361l3.20049 1.55842c-2.36354 0.47518-5.04141 0.31648-7.46782-0.2006l3.3783 1.35869c-2.35995 0.83772-5.09709 0.96033-7.64563 0.64332l3.02269 1.75816c-2.97061 0.35237-5.8155 0.18393-8.53466-0.50535l1.95586-1.55283c-3.14482 0.11426-6.16392 0.1632-9.24588-0.78009l2.64736 1.77635c-1.43682 0.59097-3.31369 0.68927-5.06484 0.57041l3.83992 1.63844c-2.34198 1.44224-6.06696 1.78084-8.53466 0.78303-2.67787 0.33157-5.98437-0.4528-7.46783-1.91846l3.73392-1.18809c-1.3075-0.0127-3.4951 0.58366-4.61401-0.40007 1.32969-0.21607 1.90501-0.57167 2.73179-1.28568-3.07662 1.29565-5.08455-0.20347-7.15535-0.87278-2.60062 1.00832-5.01265 1.0456-7.67614 0.0747l1.80856 2.12426c-2.04266 0.35835-4.33677 0.0502-6.69375-0.56699l3.64055 1.98819c-2.1121 1.04841-4.60137 1.3058-7.46783 0.65831l2.84489 1.31371c-2.78562 0.95796-5.44551 0.90162-8.35685 0.36856l3.3783 1.57345c-3.53187 0.30501-7.06374 0.38228-10.31272-0.65538l1.95586-1.55284c-2.59076 0.0471-4.74147 0.0555-7.11221-0.60006l3.91172 2.90681c-2.37433 0.76058-4.62294 0.92442-6.93441 0.70335l5.15636 2.36765c-1.5266 0.71821-3.52468 1.01706-5.33417 0.83834l4.62294 1.67843c-4.22871 1.57693-8.80317 2.59326-13.1576 2.75508z" style="fill-rule:evenodd;fill:#002673"/>
    <g id="g7152" transform="matrix(1.194374,0,0,1.194374,-63.38406,-113.7321)">
     <path id="path7145" d="m323.6875 573.5938c-0.24297 8e-3 -0.4699 0.13934-0.65625 0.34375-0.12564 0.15974-0.12182 0.30901 0.0625 0.46875l0.0312 0.5 0.21875 0.0625 0.0625 0.375h-1l-1.28125-0.21875-0.5625 0.375 0.0625 0.0312c-0.47476-0.0222-0.89381 0.15861-1.25 0.53125-0.0207-0.21787-0.0141-0.39359-0.34375-0.5625-0.28904 0.31149-0.48059 0.46721-0.15625 1.3125 0.15164 0.39527 0.10115 0.92147 0.1875 1.25 0.0737 0.28038 0.34686 0.63511 0.75 0.59375 0.79421-0.0815 0.54161-0.44781 0.375-0.84375l0.1875-0.84375c0.56744 0.71878 0.34104 1.43747 0.15625 2.15625l-1.15625 0.40625c-0.43938 0.15583-0.52273 0.5499-0.21875 1.09375 0.28189 0.30718 0.3289 0.59909 1.1875 0.90625 0.27519-0.01 0.52275 0.20864 0.84375-0.0625l-0.25-0.90625-0.625 0.25-0.40625-0.625h0.90625c0.38582 0.28279 0.68162 0.63686 1.5625 0.6875 0.25688 0.80476 1.00607 1.2352 1.28125 2.40625-0.24871 0.21882-0.36385 0.45084-0.40625 0.71875 0.35272 0.0544 0.74279 0.0477 1.25-0.0937l-0.25-0.75 0.40625-0.28125-0.8125-0.9375c9e-3 -0.69279-0.26164-0.90214-0.4375-1.375 0.38572 0.0378 0.74806 0.012 1.125-0.0312l0.0312 0.0937-0.5 0.5625 0.0312 0.28125 0.84375-0.15625 0.40625-0.5625 0.125 0.28125 0.625-0.21875-0.15625-0.34375c0.20256 0.0142 0.39633 0.0451 0.625 0.0937 0.2855 0.387 0.54963 0.76922 1.1875 1.15625 0.33476 0.4968 0.14106 0.58821 0.0937 0.8125-0.36028 0.45463-0.89797 0.92039-0.875 1.375 0.29343 0.0662 0.58886 0.15397 1.03125 0.0312l0.0937-0.6875 0.40625-0.0625 0.53125-1.46875c0.48752 0.38439 0.64061 0.90708 0.71875 1.4375-0.40259 0.28259-0.29981 0.62364-0.34375 0.90625 0.37262 0.0394 0.70011 0.15963 1.21875-0.125l-0.3125-0.8125 0.34375-0.25c-0.49093-0.55905-0.5256-1.22221-0.71875-1.78125-0.39908-0.4546-0.50894-0.90197-0.40625-1.375 0.0673-0.69173-0.15402-1.24053-0.5625-1.6875 0.43285-0.11408 0.8568-0.0978 1.21875 0.375 0.39174 0.51173 0.2088 1.04028 0.0937 1.65625-0.20649 1.10561 0.46315 1.58471 1.28125 1.78125-0.99448-0.98322-0.17262-2.17112-0.40625-3.0625-0.48363-1.84529-1.68112-1.34861-2.65625-1.15625-0.38771-0.27812-0.89509-0.37843-1.625-0.34375l0.4375-0.5625c-0.11488-1.06036-0.85751-1.66151-1.6875-2.1875-0.33593-0.085-0.66408-0.0804-1 0.0312-0.12814-0.69588-0.53255-0.98149-0.9375-0.96875zm-18.28125 1.90625c-0.28905 0.31149-0.44934 0.46721-0.125 1.3125 0.15166 0.39527 0.0699 0.92147 0.15625 1.25 0.0737 0.28038 0.37811 0.63511 0.78125 0.59375 0.79423-0.0815 0.54161-0.44781 0.375-0.84375l0.15625-0.84375c0.56743 0.71878 0.34104 1.43747 0.15625 2.15625l-1.125 0.40625c-0.43936 0.15583-0.55398 0.5499-0.25 1.09375 0.28188 0.30718 0.36015 0.59909 1.21875 0.90625 0.27517-0.01 0.4915 0.20864 0.8125-0.0625l-0.21875-0.90625-0.65625 0.25-0.40625-0.625h0.9375c0.38581 0.28279 0.68162 0.63686 1.5625 0.6875 0.25687 0.80476 1.00607 1.2352 1.28125 2.40625-0.24873 0.21882-0.36385 0.45084-0.40625 0.71875 0.35271 0.0544 0.74279 0.0477 1.25-0.0937l-0.25-0.75 0.40625-0.28125-0.84375-0.9375c9e-3 -0.69279-0.23039-0.90214-0.40625-1.375 0.98602 0.0967 1.80087-0.28186 3.125 0 0.28549 0.387 0.58088 0.76922 1.21875 1.15625 0.33477 0.4968 0.10981 0.58821 0.0625 0.8125-0.36027 0.45463-0.86672 0.92039-0.84375 1.375 0.29345 0.0662 0.55761 0.15397 1 0.0312l0.125-0.6875 0.375-0.0625 0.53125-1.46875c0.48753 0.38439 0.64061 0.90708 0.71875 1.4375-0.40261 0.28259-0.29981 0.62364-0.34375 0.90625 0.3726 0.0394 0.70011 0.15963 1.21875-0.125l-0.3125-0.8125 0.375-0.25c-0.49091-0.55905-0.55685-1.22221-0.75-1.78125-0.39909-0.4546-0.47769-0.90197-0.375-1.375 0.0673-0.69173-0.18527-1.24053-0.59375-1.6875 0.43283-0.11408 0.88805-0.0978 1.25 0.375 0.39175 0.51173 0.17755 1.04028 0.0625 1.65625-0.20648 1.10561 0.46315 1.58471 1.28125 1.78125-0.9945-0.98322-0.14137-2.17112-0.375-3.0625-0.48364-1.84529-1.71237-1.34861-2.6875-1.15625-0.46089-0.33062-1.0435-0.41116-2.03125-0.3125-1.51488 0.15134-2.57461-0.19803-3.59375-0.46875-1.41761-1.4701-2.6195-1.66972-3.46875-0.78125-0.0207-0.21787-0.0453-0.39359-0.375-0.5625zm16.21875 0.125 0.90625 0.25 0.28125 0.34375 1.375-0.125 0.625 0.9375-0.125 0.21875c-0.66371-0.0969-1.24341-0.25508-1.8125-0.40625-0.53161-0.55129-1.03232-0.92266-1.5-1.125z" style="fill-rule:evenodd;fill:#002673;stroke-width:1.67452;stroke:#ffffff"/>
     <path id="path7047" d="m305.421 575.4984c-0.28904 0.31151-0.47761 0.46335-0.15327 1.30864 0.15165 0.39525 0.0874 0.94124 0.17371 1.26977 0.0737 0.28036 0.37005 0.6147 0.77319 0.57334 0.79422-0.0815 0.53448-0.4333 0.36787-0.82924l0.17712-0.84867c0.56744 0.71878 0.33807 1.43853 0.15328 2.15731l-1.14447 0.40489c-0.43937 0.15582-0.5356 0.54453-0.23162 1.08838 0.28189 0.30717 0.34377 0.61278 1.20237 0.91994 0.27518-0.01 0.51351 0.19664 0.83451-0.0745l-0.23503-0.9005-0.63695 0.23646-0.40873-0.60573 0.91284-0.0194c0.38582 0.28277 0.68595 0.63284 1.56683 0.68348 0.25688 0.80479 1.00553 1.24216 1.28071 2.41321-0.24872 0.21885-0.36633 0.47063-0.40873 0.73854 0.35272 0.0545 0.75306 0.0475 1.26027-0.0939l-0.25205-0.77418 0.40873-0.25913-0.8345-0.95558c9e-3 -0.69278-0.24991-0.89084-0.42577-1.3637 0.98603 0.0967 1.81634-0.3013 3.14047-0.0194 0.2855 0.38703 0.56109 0.77261 1.19896 1.15964 0.33477 0.4968 0.12565 0.60495 0.0783 0.82924-0.36027 0.45461-0.8745 0.90909-0.85153 1.3637 0.29344 0.0661 0.56583 0.16159 1.00822 0.0389l0.1158-0.69967 0.38831-0.0389 0.54157-1.47383c0.48752 0.38442 0.64056 0.88835 0.7187 1.41877-0.4026 0.28261-0.30689 0.62114-0.35083 0.90375 0.37261 0.0394 0.70416 0.17448 1.2228-0.11015l-0.30995-0.81303 0.34742-0.2397c-0.49092-0.55906-0.54258-1.2452-0.73573-1.80424-0.39909-0.45463-0.49099-0.89068-0.3883-1.36371 0.0673-0.69175-0.16716-1.2439-0.57564-1.69087 0.43285-0.11409 0.87108-0.11001 1.23303 0.36279 0.39174 0.51172 0.19339 1.06194 0.0783 1.67791-0.20649 1.10561 0.46261 1.57207 1.28071 1.76861-0.99449-0.98322-0.15467-2.15024-0.3883-3.04162-0.48364-1.84529-1.69869-1.3779-2.67382-1.18554-0.4609-0.33063-1.04913-0.4064-2.03688-0.30774-1.51487 0.15133-2.56413-0.18924-3.58327-0.45996-1.41761-1.47011-2.64205-1.66264-3.4913-0.77417-0.0207-0.21788-0.0178-0.40119-0.34743-0.5701z" style="fill-rule:evenodd;fill:#002673;stroke-width:.209315;stroke:#ffffff"/>
     <path id="path7030" d="m319.031 575.4984c-0.28904 0.31151-0.47761 0.46335-0.15327 1.30864 0.15165 0.39525 0.0874 0.94124 0.17371 1.26977 0.0737 0.28036 0.37005 0.6147 0.77319 0.57334 0.79422-0.0815 0.53448-0.4333 0.36787-0.82924l0.17712-0.84867c0.56744 0.71878 0.33807 1.43853 0.15328 2.15731l-1.14447 0.40489c-0.43937 0.15582-0.5356 0.54453-0.23162 1.08838 0.28189 0.30717 0.34377 0.61278 1.20237 0.91994 0.27518-0.01 0.51351 0.19664 0.83451-0.0745l-0.23503-0.9005-0.63695 0.23646-0.40873-0.60573 0.91284-0.0194c0.38582 0.28277 0.68595 0.63284 1.56683 0.68348 0.25688 0.80479 1.00553 1.24216 1.28071 2.41321-0.24872 0.21885-0.36633 0.47063-0.40873 0.73854 0.35272 0.0545 0.75306 0.0475 1.26027-0.0939l-0.25205-0.77418 0.40873-0.25913-0.8345-0.95558c9e-3 -0.69278-0.24991-0.89084-0.42577-1.3637 0.98603 0.0967 1.81634-0.3013 3.14047-0.0194 0.2855 0.38703 0.56109 0.77261 1.19896 1.15964 0.33477 0.4968 0.12565 0.60495 0.0783 0.82924-0.36027 0.45461-0.8745 0.90909-0.85153 1.3637 0.29344 0.0661 0.56583 0.16159 1.00822 0.0389l0.1158-0.69967 0.38831-0.0389 0.54157-1.47383c0.48752 0.38442 0.64056 0.88835 0.7187 1.41877-0.4026 0.28261-0.30689 0.62114-0.35083 0.90375 0.37261 0.0394 0.70416 0.17448 1.2228-0.11015l-0.30995-0.81303 0.34742-0.2397c-0.49092-0.55906-0.54258-1.2452-0.73573-1.80424-0.39909-0.45463-0.49099-0.89068-0.3883-1.36371 0.0673-0.69175-0.16716-1.2439-0.57564-1.69087 0.43285-0.11409 0.87108-0.11001 1.23303 0.36279 0.39174 0.51172 0.19339 1.06194 0.0783 1.67791-0.20649 1.10561 0.46261 1.57207 1.28071 1.76861-0.99449-0.98322-0.15467-2.15024-0.3883-3.04162-0.48364-1.84529-1.69869-1.3779-2.67382-1.18554-0.4609-0.33063-1.04913-0.4064-2.03688-0.30774-1.51487 0.15133-2.56413-0.18924-3.58327-0.45996-1.41761-1.47011-2.64205-1.66264-3.4913-0.77417-0.0207-0.21788-0.0178-0.40119-0.34743-0.5701z" style="fill-rule:evenodd;fill:#002673;stroke-width:.209315;stroke:#ffffff"/>
     <path id="path7043" d="m320.572 575.5071 0.56203-0.39626 1.27909 0.23038 0.98839 9e-3 -0.0485-0.37782-0.22287-0.0645-0.0388-0.49762c-0.18433-0.15973-0.19347-0.31945-0.0678-0.47919 0.49695-0.54507 1.40353-0.46834 1.60855 0.64507 0.33593-0.1116 0.67185-0.12186 1.00778-0.0369 0.83 0.52601 1.55181 1.13285 1.66669 2.19321l-0.54264 0.70035-0.2907 0.9031h-0.60079l-0.56203 0.73721 0.79459 1.75088-0.63955 0.20274-0.11628-0.27646-0.40698 0.55292-0.83335 0.16587-0.0581-0.27646 0.52326-0.55291-0.34884-1.10582c-0.18408-0.43619-0.42988-0.87236-0.11628-1.30855l0.69769-1.17955-0.61048-0.93995-1.39538 0.10137-0.28101-0.32253-0.8818-0.26725-0.54264 0.18431z" style="fill-rule:evenodd;fill:#002673;stroke-linecap:round;stroke-linejoin:round;stroke-width:.209315;stroke:#ffffff"/>
    </g>
    <path id="path7167" d="m368.0312 592.0312-1.71875 2.84375h-16.75c-0.67834 0.97387-1.19327 1.79751-1.0625 4.09375 0.19733 3.46498 3.79927 7.24917 6.5625 7.09375 1.53255 1.3715 7.44664 1.47388 11.65625 0 5.16544 1.18108 10.61005 0.39048 16 0 5.71644 1.419 11.98793 1.65902 19.125 0 2.40964 0.55561 4.78824 1.27785 7.65625 0 7.56471 0.0216 12.98346 2.18018 22.75 0 3.14122 1.11078 6.26502 0.77275 9.40625 0 3.27977 0.67119 6.85322 0.75032 10.84375 0 3.20469-2.78564 4.33761-5.55813 3.75-8.34375h-32.673v-2.6875h-2.23325l-1.375-3h-15.125l-2.40625 4-1.84375-4h-15.125l-3.4375 5.6875h-1.71875l-3.375-2.84375h-2.21875l-1.3125-2.84375z" style="fill-rule:evenodd;fill:#002673"/>
    <path id="path2491" d="m297.0945 613.4583c7.71155 0.40935 21.53758 0.76521 28.89218-0.52903-4.54642 3.35886-21.3851 4.07767-28.89218 0.52903z" style="fill-rule:evenodd;fill:#002673"/>
    <path id="path2493" d="m312.7008 608.543c-3.97828 0.40935-11.11088 0.76521-14.90499-0.52903 2.34543 3.35886 11.0322 4.07767 14.90499 0.52903z" style="fill-rule:evenodd;fill:#002673"/>
    <path id="path2495" d="m280.8758 605.9027c3.97828 0.40935 11.11088 0.76521 14.90499-0.52903-2.34543 3.35886-11.0322 4.07767-14.90499 0.52903z" style="fill-rule:evenodd;fill:#002673"/>
    <path id="path2497" d="m300.3989 619.7328c3.97827 0.40935 11.11087 0.76521 14.90498-0.52903-2.34542 3.35886-11.03219 4.07767-14.90498 0.52903z" style="fill-rule:evenodd;fill:#002673"/>
    <path id="path2499" d="m302.9393 623.756c-3.97828 0.40935-11.11088 0.76521-14.90499-0.52903 2.34543 3.35886 11.0322 4.07767 14.90499 0.52903z" style="fill-rule:evenodd;fill:#002673"/>
    <path id="path2501" d="m355.5437 615.9609c3.07437 0.40935 8.58637 0.76521 11.51842-0.52903-1.81252 3.35886-8.52557 4.07767-11.51842 0.52903z" style="fill-rule:evenodd;fill:#002673"/>
    <path id="path2503" d="m378.1262 617.9726c-3.07437 0.40935-8.58637 0.76521-11.51842-0.52903 1.81252 3.35886 8.52557 4.07767 11.51842 0.52903z" style="fill-rule:evenodd;fill:#002673"/>
    <path id="path2505" d="m421.1249 613.1949c-3.07437 0.40935-8.58637 0.76521-11.51842-0.52903 1.81252 3.35886 8.52557 4.07767 11.51842 0.52903z" style="fill-rule:evenodd;fill:#002673"/>
    <path id="path2507" d="m429.6744 615.2066c-2.40321 0.40935-6.71191 0.76521-9.00387-0.52903 1.41683 3.35886 6.66438 4.07767 9.00387 0.52903z" style="fill-rule:evenodd;fill:#002673"/>
    <path id="path2509" d="m428.2142 613.1949c2.40321 0.40935 6.71191 0.76521 9.00387-0.52903-1.41683 3.35886-6.66438 4.07767-9.00387 0.52903z" style="fill-rule:evenodd;fill:#002673"/>
    <path id="path2511" d="m463.3693 610.9318c-3.07437 0.40935-8.58637 0.76521-11.51842-0.52903 1.81252 3.35886 8.52557 4.07767 11.51842 0.52903z" style="fill-rule:evenodd;fill:#002673"/>
    <path id="path2516" d="m300.1735 615.5837c-2.97951 0.40935-8.32146 0.76521-11.16304-0.52903 1.75659 3.35886 8.26253 4.07767 11.16304 0.52903z" style="fill-rule:evenodd;fill:#002673"/>
    <path id="path2518" d="m303.102 603.1367c-2.97952 0.40935-8.32146 0.76521-11.16305-0.52903 1.7566 3.35886 8.26253 4.07767 11.16305 0.52903z" style="fill-rule:evenodd;fill:#002673"/>
    <path id="path2520" d="m284.2296 603.6396c-2.97952 0.40935-8.32146 0.76521-11.16305-0.52903 1.75659 3.35886 8.26253 4.07767 11.16305 0.52903z" style="fill-rule:evenodd;fill:#002673"/>
    <path id="path2524" d="m288.785 610.3032c-3.97827 0.40935-11.11087 0.76521-14.90498-0.52903 2.34542 3.35886 11.03219 4.07767 14.90498 0.52903z" style="fill-rule:evenodd;fill:#002673"/>
    <path id="path2526" d="m293.6658 618.9784c-3.97827 0.40935-11.11087 0.76521-14.90498-0.52903 2.34542 3.35886 11.0322 4.07767 14.90498 0.52903z" style="fill-rule:evenodd;fill:#002673"/>
    <path id="path2546" d="m305.8055 627.7657c3.07437 0.40935 8.58637 0.76521 11.51842-0.52903-1.81252 3.35886-8.52557 4.07767-11.51842 0.52903z" style="fill-rule:evenodd;fill:#002673"/>
    <path id="rect2643" d="m431.8011 591.9729-2.6875 3.21875h-2.6875v2.1875h10.53125v-1.71875h7.71875v1.71875h8.03125v-2.1875h-4.75l-1.6875-3.21875z" style="fill:#002673"/>
    <path id="path2658" d="m334.243 581.5295c6.65731 4.97386 16.87284 9.48859 26.51447 12.16682" style="fill:none;stroke-width:.5;stroke:#002673"/>
    <path id="path2660" d="m333.9134 580.8583c6.85172 5.1473 17.36556 9.81946 27.28875 12.59108" style="fill:none;stroke-width:.5;stroke:#fffeff"/>
   </g>
   <path id="path5378" d="m374.0156 310.4407a178.8562 178.8562 0 0 0-178.8562 178.8561 178.8562 178.8562 0 0 0 178.8562 178.8562 178.8562 178.8562 0 0 0 178.8562-178.8562 178.8562 178.8562 0 0 0-178.8562-178.8561zm0 29.11612a149.74 149.74 0 0 1 149.74 149.74 149.74 149.74 0 0 1-149.74 149.7401 149.74 149.74 0 0 1-149.74-149.7401 149.74 149.74 0 0 1 149.74-149.74z" style="fill-rule:evenodd;fill:#002673"/>
   <path id="path8718" d="m374.0156 339.5568a149.74 149.74 0 0 0-149.74 149.7401 149.74 149.74 0 0 0 149.74 149.74 149.74 149.74 0 0 0 149.74-149.74 149.74 149.74 0 0 0-149.74-149.7401zm0 6.2392a143.5009 143.5009 0 0 1 143.5009 143.5009 143.5009 143.5009 0 0 1-143.5009 143.5009 143.5009 143.5009 0 0 1-143.5009-143.5009 143.5009 143.5009 0 0 1 143.5009-143.5009z" style="fill-rule:evenodd;fill:#ffffff"/>
   <path id="path8361" d="m374.0156 306.2813a183.0156 183.0156 0 0 0-183.0156 183.0156 183.0156 183.0156 0 0 0 183.0156 183.0156 183.0156 183.0156 0 0 0 183.0156-183.0156 183.0156 183.0156 0 0 0-183.0156-183.0156zm0 6.23916a176.7764 176.7764 0 0 1 176.7764 176.7764 176.7764 176.7764 0 0 1-176.7764 176.7764 176.7764 176.7764 0 0 1-176.7764-176.7764 176.7764 176.7764 0 0 1 176.7764-176.7764z" style="fill-rule:evenodd;fill:#ffffff"/>
  </g>
 </g>
</svg>
